# xmcd
#
# Track frame offsets: 
#        150
#        17575
#        42867
#        67471
#        86379
#        101366
#        119640
#        141563
#        165413
#        184747
#        204493
#        225178
#        241432
#        258113
#        274111
#
# Disc length: 3925 seconds
#
# Revision: 1
# Processed by: cddbd v1.5.2PL0 Copyright (c) Steve Scherf et al.
# Submitted via: ExactAudioCopyFreeDBPlugin 1.0
#
DISCID=cb0f530f
DTITLE=群星 - TEST-CD试音极品18CDB
DYEAR=2013
DGENRE=stereo
TTITLE0=请您恰恰
TTITLE1=掌声响起来
TTITLE2=独舞的枫叶
TTITLE3=怨苍天变了心
TTITLE4=烟雨蒙蒙
TTITLE5=此情可持
TTITLE6=我最亲爱的
TTITLE7=玉萨
TTITLE8=情义无价
TTITLE9=最后的倾诉
TTITLE10=挥不去的思念
TTITLE11=邻妹妹爱上假宝玉
TTITLE12=月光上行走
TTITLE13=如果你是我的传说
TTITLE14=花儿像人人像花
EXTD=
EXTT0=
EXTT1=
EXTT2=
EXTT3=
EXTT4=
EXTT5=
EXTT6=
EXTT7=
EXTT8=
EXTT9=
EXTT10=
EXTT11=
EXTT12=
EXTT13=
EXTT14=
PLAYORDER=
